<?xml version="1.0" encoding="UTF-8"?> <!-- Generator: Adobe Illustrator 25.2.0, SVG Export Plug-In . SVG Version: 6.00 Build 0) --> <svg xmlns="http://www.w3.org/2000/svg" xmlns:xlink="http://www.w3.org/1999/xlink" version="1.1" id="Layer_1" x="0px" y="0px" viewBox="0 0 1490.77 825.15" style="enable-background:new 0 0 1490.77 825.15;fill:#fff" fill="" xml:space="preserve"> <g> <path d="M612.18,21.46c-5.87,8.56-11.21,16.55-16.75,24.4c-14.79,20.95-29.67,41.83-44.5,62.74c-2.5,3.53-4.8,7.22-7.4,10.68 c-25.82,34.35-51.92,68.49-77.46,103.05c-18.41,24.92-35.95,50.47-54.18,75.52c-5.42,7.44-2.27,14.46-1.29,23.08 c1.93-1.46,3.04-1.99,3.7-2.85c24.49-32.04,48.94-64.1,73.39-96.17c1.21-1.59,2.56-3.11,3.57-4.82 c22.61-38.32,52.75-71.15,78.17-107.41c9.36-13.35,17.94-27.26,26.98-40.84c5.35-8.04,10.86-15.97,16.37-23.9 c4.37-6.28,8.81-12.51,13.3-18.71c5.38-7.43,9.25-8.07,16.74-3.05c13.83,9.27,27.57,18.7,41.6,27.67c6.04,3.86,9.15,8.2,7.32,15.65 c-1.49,6.09-2.15,12.38-3.25,19.02c1.33,0.84,2.61,1.89,4.07,2.53c29.29,12.8,58.59,25.57,87.91,38.31 c3.36,1.46,6.73,2.93,10.21,4.07c17.13,5.6,27.36,18.11,34.57,33.87c13.16,28.77,26.7,57.36,39.69,86.21 c15.86,35.22,31.31,70.63,46.95,105.95c0.64,1.45,1.43,2.84,3.31,6.55c15.75-53.54,30.87-104.96,46.25-157.22 c-3.8,0.32-6.7,0.71-9.6,0.77c-7.81,0.17-11.28-4.22-8.25-11.52c6.01-14.46,16.61-23.73,32.33-26.84 c18.98-3.76,37.97-1.26,56.79,0.49c37.21,3.46,74.42,5.19,111.75,3.73c10.45-0.41,20.7,0.34,30.63,3.41 c25.41,7.86,50.73,16,76.08,24.06c0.92,0.29,1.75,0.89,2.24,1.16c-0.71,2.16-2.32,4.4-1.87,6.09c6.82,25.85,5.93,52.12,4.74,78.43 c-0.14,2.99-0.56,5.98-0.52,8.97c0.4,30.65,0.87,61.3,1.31,91.94c0.05,3.3,0.01,6.61,0.01,10.64c3.2,0.31,5.73,0.82,8.23,0.74 c13.99-0.45,27.96-1.08,41.95-1.58c3.66-0.13,7.35-0.28,10.99,0.01c9.09,0.71,12.73,3.53,14.17,12.45 c1.48,9.18,2.35,18.5,2.84,27.8c0.67,12.64,0.79,25.31,1.01,37.97c0.06,3.32-0.14,6.67-0.62,9.96c-1.33,9.09-3.9,10.65-12.93,11.85 c-24.73,3.29-49.66,5.54-73.71,12.76c-1.5,0.45-2.92,1.19-4.06,3.22c18.86,0,37.73-0.38,56.58,0.15 c10.25,0.29,20.47,2.12,30.7,3.25c6.06,0.67,9.52,4.47,11.46,9.82c5.42,14.99,7.49,30.47,4.82,46.21 c-2.07,12.24-6.76,16.72-19.17,17.59c-14.6,1.02-29.29,0.63-43.92,1.2c-18.31,0.71-36.6,1.91-54.91,2.63 c-5.87,0.23-9.19,2.72-10.65,8.39c-1.24,4.83-2.88,9.57-4.5,14.29c-3.75,10.95-6.85,13.07-18.34,12.67 c-19.31-0.68-38.61-1.57-57.93-2.05c-41.38-1.04-41.36-0.88-80.64,13.57c-17.18,6.32-34.31,12.89-51.82,18.19 c-18.7,5.67-38.17,6.64-57.48,4.12c-44.79-5.86-89.76-5.16-134.75-5.19c-18.66-0.01-37.31-0.52-55.97-0.56 c-3.53-0.01-7.44,0.38-10.52,1.91c-25.38,12.55-50.55,25.52-75.91,38.12c-6.58,3.27-11.17,8.1-14.82,14.29 c-7.45,12.63-11.51,26.19-11.52,40.85c0,3.95,0.59,8,1.56,11.83c2.75,10.9,5.49,12.84,16.53,12.74c3.88-0.04,7.76-0.01,13.37-0.01 c-7.35-12.55-6.65-24.92-6.92-37.22c-0.23-10.46,3.18-19.67,8.49-28.3c9.18-14.92,24.68-17.26,38.25-5.98 c1.52,1.27,2.94,2.66,4.47,4.05c13.17-7.46,26.19-14.7,39.07-22.18c7.84-4.55,15.69-7.52,25.22-6.84 c11.6,0.82,23.32-0.36,34.97-0.08c25.65,0.6,51.29,1.51,76.93,2.45c6.65,0.24,13.3,0.9,19.91,1.7c7.7,0.94,9.6,4.24,7.15,11.73 c-0.41,1.26-0.98,2.49-1.62,3.65c-10.38,18.83-13.97,39.39-15.45,60.5c-0.73,10.42-1.65,11.49-11.88,11.44 c-42.99-0.18-85.99-0.33-128.97-0.9c-10.62-0.14-21.23-1.77-33.17-2.84c-2.27,2.74-5.15,6.22-8.79,10.63 c3.24,0.67,5.34,1.44,7.47,1.5c47.96,1.55,95.92,3.04,143.88,4.49c8.33,0.25,16.66,0.21,24.99,0.5c6.5,0.22,7.92,1.77,8.55,8.42 c1.7,17.99,0.72,19.46-16.83,20.8c-8.95,0.68-17.99,0.72-26.98,0.46c-41.3-1.17-82.72-1.06-123.87-4.25 c-41.59-3.22-83.28-1.87-124.79-5.23c-11.6-0.94-23.13-2.83-34.68-4.39c-8.04-1.09-13.94-5.4-18.99-11.73 c-11.2-14.01-19.66-28.89-22.37-47.17c-3.91-26.4,8.37-56.06,31.01-70.09c4.08-2.53,9.32-3.12,13.89-4.94 c31.29-12.48,63.23-22.93,95.94-31.03c2.26-0.56,4.79-0.7,6.72-1.84c13.89-8.14,28.81-6.09,43.82-5.32 c29.61,1.53,59.27,1.92,88.87,3.63c20.91,1.21,41.72,3.98,62.6,5.74c11.25,0.95,22.55,1.66,33.83,1.74 c9.24,0.06,18.49-0.97,28.38-1.56c0-4.38,0-8.19,0-12.81c-3.06-0.28-5.97-0.88-8.84-0.76c-27.08,1.16-53.86-2.54-80.74-4.68 c-13.61-1.08-27.24-2.01-40.88-2.43c-5.78-0.18-9.34-2.25-11.7-7.4c-4.03-8.78-8.45-17.37-12.49-26.15 c-1.72-3.74-4.18-5.91-8.37-5.82c-28.61,0.59-56.7-8.56-85.62-4.03c-13.52,2.12-19.37-5.08-18.59-18.97 c0.91-16.27,1.28-32.58,1.56-48.88c0.15-8.91,3.17-13.21,12-13.81c7.94-0.55,15.96-0.12,24.89-0.12c0.3-3.35,0.86-6.21,0.77-9.04 c-0.54-16.65-1.19-33.29-1.89-49.93c-0.23-5.56-0.53-11.02,7.15-12c-0.3-6.28-0.56-11.92-0.83-17.56 c-0.27-5.8-0.8-11.72,6.37-13.07c-1.77-17.94-3.38-35.12-5.19-52.29c-1.11-10.51-1.25-10.5,9.92-13.45 c-1.94-21.27-3.89-42.71-5.89-64.59c-1.43-0.75-2.78-1.73-4.29-2.22c-35.82-11.52-71.68-22.94-107.48-34.51 c-4.39-1.42-7.26-0.27-10.67,2.75c-14.94,13.26-29.9,26.54-45.43,39.09c-44.88,36.28-88.31,74.14-128.95,115.16 c-5.46,5.52-9.26,11.1-7.86,19.35c0.6,3.54,0.35,7.38-0.27,10.95c-1.93,11.01-1.52,21.92,1,32.73c1.6,6.89-0.62,11.93-6.71,15 c-5.02,2.53-10.21,4.96-15.59,6.48c-15.13,4.26-29.44,10.16-43.53,17.26c-16.31,8.22-33.62,14.46-50.47,21.63 c-10.72,4.56-21.36,9.33-32.12,13.81c-4.16,1.73-8.54,2.94-14.36,4.9c0.58-5.58,0.62-9.53,1.45-13.3 c10.45-47.53,15.64-95.93,24.06-143.79c2.54-14.41,6.08-28.65,9.14-42.97c4.25-19.84,8.12-39.78,12.85-59.5 c2.79-11.61,6.94-22.89,10.38-33.98c-7.3,1.49-19.4,11.08-23.37,20.78c-4.66,11.36-9.08,23-11.81,34.93 c-8.99,39.25-17.76,78.58-25.46,118.1c-6.5,33.32-11.38,66.95-17.03,100.43c-0.66,3.93-1.78,7.79-2.39,11.73 c-0.54,3.46-2.14,5.52-5.76,5.64c-7.4,0.26-10.31,5.21-11.84,11.46c-3.49,14.22-6.92,28.46-10.36,42.7 c-5.87,24.26-4.15,21.98-28.16,22.18c-3.27,0.03-6.55-0.38-10.54-0.64c-1.34-13.33,3.61-25.16,6.04-37.36 c2.46-12.37,4.85-24.75,7.43-37.99c-5.1,0-9.21,0-13.64,0c-10.63,24.7-17.94,50.22-24.96,75.94c-10.66,0-20.53,0-31.35,0 c-0.75-13.66,3.65-26.04,5.05-38.74c1.38-12.52,3.56-24.95,5.58-38.74c-5.16-0.3-9.61-0.56-14.47-0.85 c-7.11,24.75-14.06,48.93-21,73.12c-12,1.65-22.79,1.64-35.06-0.13c5.12-25.61,10.04-50.24,15.17-75.89c-7.76,0-14.88,0-22.64,0 c-5.65,25.42-10.34,51.28-20.69,75.51c-10.1,1.51-19.14,0.57-27.81-2.58c1.48-3.79,3.61-7.07,4-10.54 c8.61-76.6,25.16-151.74,41.61-226.88c7.12-32.52,15.08-64.85,22.88-97.21c1.46-6.07,3.96-11.88,7.65-17.64 c0.27,1.64,0.53,3.28,0.93,5.72c1.16-1.28,1.99-2.16,2.78-3.07c19.47-22.34,44.01-33.85,73.63-34.77 c22.03-0.69,43.76,0.61,65.62,4.43c17.92,3.13,36.49,2.69,54.78,3.46c9.31,0.39,18.67-0.26,27.99-0.02 c17.97,0.46,35.94,1.15,53.9,1.93c4.44,0.19,8.18,0.1,11.79-3.46c19.69-19.41,39.65-38.54,60.06-58.29 c-7.69-7.83-3.52-13.16,1.56-17.74c6.18-5.56,12.97-10.43,19.34-15.79c26.04-21.89,51.35-44.48,74.16-69.88 c14.45-16.08,30.41-30.81,45.79-46.05c3.96-3.92,6.43-3.66,9.92,0.61c1.25,1.53,2.5,3.25,3.1,5.1c2.76,8.48,8.62,10.59,16.97,9.69 C602.73,17.71,607.83,16.35,612.18,21.46z M1080.35,466.89c1.7-23.21,2.92-44.79,4.93-66.31c4.72-50.4,9.84-100.76,14.7-151.14 c0.4-4.15,0.05-8.37,0.05-12.59c-41.26-4.4-81.76-2.02-122.19-3.43c-1.48,6.08-2.56,10.95-3.85,15.76 c-17.6,65.93-35.22,131.86-52.87,197.79c-1.47,5.48-2.89,10.9-0.94,15.32C973.8,463.83,1026.63,465.35,1080.35,466.89z M1115.87,464.09c27.78-4.02,54.93-7.95,82.15-11.89c6.35-68.53,4.58-136.71,8.31-204.94c-25.82-4.97-51.05-7.34-76.9-7.98 c0,4.6,0.04,7.9-0.01,11.2c-0.28,17.99,0.35,36.05-1.08,53.94c-2.91,36.51-7.21,72.91-10.34,109.4 C1116.56,430.64,1116.53,447.59,1115.87,464.09z M404.23,246.56c25.4-28.4,48.54-58.03,68.24-90.31 c-5.01,2.98-9.54,6.34-13.73,10.07c-5.13,4.57-10.4,7.03-16.65,2.17c-19.19,18.37-38.43,35.6-55.29,55.2 C393.01,231.64,403.67,234.93,404.23,246.56z M594.25,150c42.1-16.03,85.92-11.33,130.2-12.21c-14.55-8.76-48.85-22.24-55.71-22.13 c-2.49,11.96-3.45,12.82-14.46,13.29C632.05,129.89,612.65,138.93,594.25,150z M781.38,379.49c-3.09-12.39-6.2-23.93-8.82-35.58 c-4.18-18.51-7.89-37.13-12.12-55.62c-1.35-5.91-3.74-11.58-5.66-17.36c-1.46,6.38-2.94,12.81-1,17.94 c1.59,4.19,2.39,8.03,2.51,12.29c0.25,9.25,0.53,18.5,0.79,27.39c10.17,3.56,10.4,3.86,10.25,13.67c-0.05,3-0.3,5.99-0.32,8.99 c-0.04,9.24-0.02,18.47-0.02,28.28C771.14,379.49,775.66,379.49,781.38,379.49z"></path> <path d="M1222.04,823.58c-59.6-1.11-119.2-2.08-178.8-3.41c-27.3-0.61-54.53-2.45-81.42-7.79c-6.54-1.3-11.63-4.12-16.02-9.17 c-10.74-12.34-16.21-26.82-16.96-42.83c-0.49-10.57,0.22-21.28,1.33-31.83c1.98-18.82,12.32-31.5,29.45-39.64 c26.83-12.76,54.68-22.76,82.69-32.43c16.04-5.54,32.13-10.9,48.15-16.47c18.03-6.27,36.59-6.34,55.3-5.18 c30.24,1.87,60.47,3.82,90.73,5.41c40.56,2.14,81.16,3.8,121.4,9.75c4.43,0.65,8.79,2.58,12.87,4.57 c20.04,9.77,40.02,19.66,59.93,29.7c10.4,5.25,20.75,10.62,30.84,16.42c16.7,9.6,26.32,24.18,28.46,43.35 c2.19,19.61,0.05,38.42-10.36,55.86c-9.54,15.98-23.54,24.21-41.79,24.85c-16.63,0.59-33.3,0.37-49.95,0.38 c-55.29,0.03-110.58,0.01-165.87,0.01C1222.02,824.62,1222.03,824.1,1222.04,823.58z M1156.18,666.81 c-5.59,0.95-8.96,1.02-11.95,2.11c-17.84,6.47-35.72,12.85-53.34,19.9c-14.33,5.74-27.18,14.19-38.69,24.48 c-20.01,17.89-26.28,44.33-16.33,66.07c3.98,8.7,10.5,12.1,19.77,11.94c-2.16-9.82-5.15-19.04-6.05-28.46 c-1.63-17.09,1.06-33.4,14.38-45.96c9.04-8.52,20.78-8.18,29.38,0.75c2.5,2.6,4.61,5.74,6.26,8.96 c6.07,11.89,8.35,24.59,6.31,37.79c-1.31,8.46-3.49,16.77-5.31,25.28c0.64,0.18,1.58,0.64,2.53,0.68 c28.94,1.13,57.89,2.15,86.83,3.33c32.28,1.31,64.56,2.81,96.84,4.13c32.28,1.32,64.55,2.56,96.83,3.72 c2.81,0.1,5.65-0.65,9.14-1.09c-1.33-4.46-2.34-7.87-3.57-12.02c-4.31-0.43-8.53-1.15-12.75-1.22c-34.99-0.56-70-0.38-104.96-1.63 c-45.93-1.65-91.81-4.41-137.72-6.66c-6.83-0.33-9.34-2.13-9.57-8.76c-0.24-6.97,0.01-14.02,0.84-20.94 c0.89-7.39,3.69-9.72,11.21-10.15c5.63-0.32,11.3,0,16.96,0.02c15.31,0.05,30.63-0.41,45.91,0.26c25.28,1.1,50.52,3.23,75.8,4.36 c22.3,1,44.63,1.36,66.95,1.72c15.93,0.26,31.86,0.05,47.64,0.05c1.63-4.06,2.78-7.54,4.38-10.79c8.07-16.3,31.9-27.33,48.21-3.78 c12.62,18.21,15.46,53.63-1.49,69.88c-0.24,0.23,0.13,1.1,0.37,2.63c2.41-1.66,4.68-2.85,6.5-4.53 c16.29-15.04,20.82-39.61,11.41-60.73c-2.65-5.94-6.67-10.26-11.96-14.23c-26.75-20.09-58.96-28.67-89.48-43.5 c1.49,4.26,2.65,7.58,3.82,10.89c2.72,7.69,1.7,15.22-1.71,22.32c-4.06,8.46-11.44,11.59-20.51,11.51 c-7.01-0.06-12.32-2.77-14.93-9.53c-4.83-12.5-4.65-24.73,2.38-36.47c1.31-2.2,2.75-4.32,4.25-6.67 c-11.89-2.35-57.83-1.76-64.65,0.79c1.85,3.91,3.97,7.7,5.5,11.71c5.39,14.15-1.64,30.62-15.02,35.6 c-10.07,3.75-17.91,0.44-21.85-9.47c-1.09-2.75-1.67-5.74-2.19-8.67c-1.9-10.7,1.02-20.36,8.61-30.74 c-21.36-1.56-40.81-1.67-61.22-2.65c1.44,5.38,3.22,9.72,3.64,14.19c0.55,5.84,1.13,12.06-0.27,17.61 c-2.61,10.31-12.77,15.76-23.39,13.89c-9.86-1.74-15.49-9.08-15.24-20.27C1144.9,684.85,1148.28,676.32,1156.18,666.81z"></path> <path d="M943.32,428.17c3.23-11.6,7.21-22.2,8.97-33.15c2.15-13.41,9.18-18.45,22.18-21.62c30.62-7.47,60.7-17.19,90.95-26.16 c4.32-1.28,8.37-3.46,13.03-5.43c3.31,13.44,0.97,26.01,0.07,38.46c-1.05,14.49-1.51,14.34-15.41,17.95 c-38.58,10-77.14,20.11-115.71,30.15C946.78,428.52,946.08,428.31,943.32,428.17z"></path> <path d="M1072.43,402.23c3.18,10.07,2.26,12.76-5.8,15.2c-17.51,5.29-35.15,10.14-52.71,15.29c-20.1,5.89-40.17,11.93-60.27,17.83 c-3.35,0.98-6.81,1.61-10.33,2.43c-1.39-11.09-0.34-14.15,8.4-17.14c18.55-6.35,37.21-12.52,56.1-17.73 C1029.22,412.22,1050.93,407.46,1072.43,402.23z"></path> </g> </svg> 